<?xml version="1.0" encoding="UTF-8" standalone="no"?>
<!-- Created with Inkscape (http://www.inkscape.org/) -->

<svg
   xmlns:dc="http://purl.org/dc/elements/1.1/"
   xmlns:cc="http://creativecommons.org/ns#"
   xmlns:rdf="http://www.w3.org/1999/02/22-rdf-syntax-ns#"
   xmlns:svg="http://www.w3.org/2000/svg"
   xmlns="http://www.w3.org/2000/svg"
   xmlns:sodipodi="http://sodipodi.sourceforge.net/DTD/sodipodi-0.dtd"
   xmlns:inkscape="http://www.inkscape.org/namespaces/inkscape"
   version="1.1"
   id="svg2"
   xml:space="preserve"
   width="25in"
   height="25in"
   viewBox="0 0 2400.0001 2400.0001"
   sodipodi:docname="center_clear.svg"
   inkscape:version="0.92.2 (5c3e80d, 2017-08-06)"
   inkscape:export-filename="/home/devcomp/Pictures/logo/slogo2.png"
   inkscape:export-xdpi="96"
   inkscape:export-ydpi="96"><metadata
     id="metadata8"><rdf:RDF><cc:Work
         rdf:about=""><dc:format>image/svg+xml</dc:format><dc:type
           rdf:resource="http://purl.org/dc/dcmitype/StillImage" /><dc:title></dc:title></cc:Work></rdf:RDF></metadata><defs
     id="defs6"><clipPath
       clipPathUnits="userSpaceOnUse"
       id="clipPath18"><path
         d="M 0,586 H 1066 V 0 H 0 Z"
         id="path16"
         inkscape:connector-curvature="0" /></clipPath></defs><sodipodi:namedview
     pagecolor="#ffffff"
     bordercolor="#666666"
     borderopacity="1"
     objecttolerance="10"
     gridtolerance="10"
     guidetolerance="10"
     inkscape:pageopacity="0"
     inkscape:pageshadow="2"
     inkscape:window-width="1920"
     inkscape:window-height="1015"
     id="namedview4"
     showgrid="false"
     showguides="true"
     inkscape:measure-start="1552.97,234.41"
     inkscape:measure-end="1334.67,462.96"
     inkscape:zoom="0.25000001"
     inkscape:cx="-115.45063"
     inkscape:cy="963.50112"
     inkscape:window-x="0"
     inkscape:window-y="33"
     inkscape:window-maximized="1"
     inkscape:current-layer="layer2"
     units="in" /><g
     inkscape:groupmode="layer"
     id="layer4"
     inkscape:label="Deliver3"
     style="display:inline"
     transform="translate(0,1618.6667)" /><g
     inkscape:groupmode="layer"
     id="layer3"
     inkscape:label="Deliver5"
     style="display:inline"
     transform="translate(0,1618.6667)" /><g
     inkscape:groupmode="layer"
     id="layer2"
     inkscape:label="Deliver4"
     style="display:inline"
     transform="translate(0,1618.6667)"><g
       id="g865"
       transform="matrix(10,0,0,10,-5906.6666,-4325.3332)"><g
         id="g840"
         style="display:inline"><text
           xml:space="preserve"
           style="font-style:normal;font-weight:normal;font-size:40px;line-height:1.25;font-family:sans-serif;letter-spacing:0px;word-spacing:0px;fill:#ff00ff;fill-opacity:1;stroke:none"
           x="647.70984"
           y="349.99817"
           id="text37"><tspan
             sodipodi:role="line"
             id="tspan35"
             x="647.70984"
             y="386.02835" /></text>
<g
           style="display:inline;fill:#7289da;fill-opacity:1"
           transform="matrix(0.66666665,0,0,-0.66666665,355.33331,585.99999)"
           id="g169"><g
             style="fill:#7289da;fill-opacity:1"
             clip-path="url(#clipPath18)"
             id="g167"><g
               style="fill:#7289da;fill-opacity:1"
               transform="translate(661.69248,218.93901)"
               id="g165" /></g></g><path
           id="rect150"
           style="display:inline;fill:#7289da;fill-opacity:1;stroke-width:1.09136927"
           d="m 647.82924,333.33459 h 125.6748 c 8.98067,0 16.21059,7.22993 16.21059,16.21059 v 22.02669 c 0,8.98066 -7.22992,16.21058 -16.21059,16.21058 h -125.6748 c -8.98067,0 -16.21059,-7.22992 -16.21059,-16.21058 v -22.02669 c 0,-8.98066 7.22992,-16.21059 16.21059,-16.21059 z m 148.63238,106.70606 h -36.352 c 4.122,-10.37666 6.94067,-21.37133 8.38333,-32.84733 15.59934,-1.37467 30.57934,-3.57333 40.74934,-7.14667 -1.374,14.43067 -5.84,28.03667 -12.78067,39.994 m -68.30667,48.034 c 11.13267,-10.72 20.47734,-23.502 27.42,-37.726 h 34.084 c -14.77533,19.44667 -36.55866,33.328 -61.504,37.726 m -12.30066,-2.68066 v -35.04534 h 28.106 c -7.216,13.39934 -16.76667,25.288 -28.106,35.04534 m -10.308,-45.35334 h -33.12067 c -4.33,-10.03266 -7.422,-20.822 -9.07133,-32.02266 16.14933,1.09933 31.74866,1.44333 42.192,1.44333 z m 0,45.35334 c -11.338,-9.75734 -20.88867,-21.646 -28.10467,-35.04534 h 28.10467 z m -73.80133,-35.04534 h 34.084 c 6.94066,14.224 16.28533,27.006 27.41799,37.726 -24.94533,-4.398 -46.72799,-18.27933 -61.50199,-37.726 m -19.654,-50.302 c 10.17,3.57334 25.21866,5.772 40.818,7.14667 1.44266,11.476 4.26133,22.47067 8.38333,32.84733 h -36.352 c -6.93867,-11.95733 -11.47533,-25.56333 -12.84933,-39.994 m 145.95666,7.97134 c -1.64933,11.20066 -4.74133,21.99 -9.07133,32.02266 h -33.122 v -30.51066 c 10.44466,-0.0687 26.11266,-0.41267 42.19333,-1.512 m 61.70867,-23.708 c -3.092,-53.87467 -45.42134,-97.51067 -98.81534,-102.458 -1.032,-0.0687 -2.062,-0.20667 -3.094,-0.20667 -2.33533,-0.20533 -4.74066,-0.27466 -7.14666,-0.27466 -2.404,0 -4.81,0.0693 -7.14534,0.27466 -1.032,0 -2.062,0.138 -3.092,0.20667 -53.39399,4.94733 -95.79399,48.58333 -98.88599,102.52667 -0.13734,2.13066 -0.206,4.19199 -0.206,6.32266 0,1.168 0,2.26733 0.0687,3.436 0.48134,16.492 4.674,32.022 11.75,45.90333 1.78734,3.57334 3.78,7.00867 5.97934,10.308 17.11066,26.18134 45.07933,44.52867 77.51399,48.72067 2.95467,0.34333 5.90867,0.61867 8.86334,0.75533 0.55066,0.0687 1.10066,0.0687 1.65066,0.0687 1.168,0.0693 2.33534,0.0693 3.50334,0.0693 1.16933,0 2.33666,0 3.506,-0.0693 0.54866,0 1.09933,0 1.648,-0.0687 2.956,-0.13666 5.91,-0.412 8.86466,-0.75533 32.366,-4.192 60.40334,-22.53933 77.44534,-48.72067 2.19933,-3.29933 4.192,-6.73466 5.97933,-10.308 7.078,-13.88133 11.26867,-29.41133 11.75,-45.83533 0.0687,-1.168 0.0687,-2.336 0.0687,-3.504 0,-2.13067 -0.0687,-4.26067 -0.206,-6.39133"
           inkscape:connector-curvature="0"
           inkscape:export-xdpi="96"
           inkscape:export-ydpi="96" /></g><g
         inkscape:export-ydpi="96"
         inkscape:export-xdpi="96"
         transform="matrix(0.18963654,0,0,0.21062726,566.04701,228.91373)"
         style="display:inline;fill:#7289da;fill-opacity:1"
         id="g131"><g
           style="fill:#7289da;fill-opacity:1"
           id="g24"
           transform="matrix(3.8241675,0,0,-3.8241675,534.56591,643.57323)"><path
             d="M 0,0 H -19.105 V -19.201 H -30.218 V 28.512 H 3.342 V 19.991 H -19.105 V 8.521 H 0 Z"
             style="fill:#7289da;fill-opacity:1;fill-rule:nonzero;stroke:none"
             id="path26"
             inkscape:connector-curvature="0" /></g><g
           style="fill:#7289da;fill-opacity:1"
           id="g28"
           transform="matrix(3.8241675,0,0,-3.8241675,682.39286,609.10219)"><path
             d="m 0,0 c 0,3.407 -0.805,6.206 -2.416,8.39 -1.6,2.184 -3.865,3.277 -6.794,3.277 -3,0 -5.285,-1.088 -6.866,-3.262 C -17.666,6.231 -18.451,3.428 -18.451,0 v -8.652 c 0,-3.452 0.805,-6.271 2.406,-8.455 1.61,-2.185 3.905,-3.277 6.895,-3.277 2.909,0 5.154,1.092 6.754,3.277 1.591,2.184 2.396,5.003 2.396,8.455 z m 11.042,-8.652 c 0,-5.878 -1.862,-10.72 -5.586,-14.535 -3.725,-3.81 -8.597,-5.718 -14.606,-5.718 -6.05,0 -10.952,1.908 -14.707,5.718 -3.764,3.815 -5.637,8.657 -5.637,14.535 v 8.587 c 0,5.853 1.873,10.695 5.617,14.515 3.745,3.825 8.637,5.738 14.667,5.738 5.979,0 10.851,-1.913 14.615,-5.738 3.755,-3.82 5.637,-8.662 5.637,-14.515 z"
             style="fill:#7289da;fill-opacity:1;fill-rule:nonzero;stroke:none"
             id="path30"
             inkscape:connector-curvature="0" /></g><g
           style="fill:#7289da;fill-opacity:1"
           id="g32"
           transform="matrix(3.8241675,0,0,-3.8241675,801.62225,534.53858)"><path
             d="m 0,0 10.68,-33.394 h 0.191 L 21.692,0 H 36.308 V -47.713 H 25.195 v 11.827 l 1.047,21.793 -0.191,0.036 -11.505,-33.656 h -7.47 l -11.374,33.359 -0.191,-0.03 1.046,-21.502 V -47.713 H -14.556 V 0 Z"
             style="fill:#7289da;fill-opacity:1;fill-rule:nonzero;stroke:none"
             id="path34"
             inkscape:connector-curvature="0" /></g><g
           style="fill:#7289da;fill-opacity:1"
           id="g36"
           transform="matrix(3.8241675,0,0,-3.8241675,1074.5984,609.10219)"><path
             d="m 0,0 c 0,3.407 -0.805,6.206 -2.416,8.39 -1.6,2.184 -3.865,3.277 -6.794,3.277 -3,0 -5.285,-1.088 -6.866,-3.262 C -17.666,6.231 -18.451,3.428 -18.451,0 v -8.652 c 0,-3.452 0.805,-6.271 2.406,-8.455 1.61,-2.185 3.905,-3.277 6.895,-3.277 2.909,0 5.154,1.092 6.754,3.277 1.591,2.184 2.396,5.003 2.396,8.455 z m 11.043,-8.652 c 0,-5.878 -1.863,-10.72 -5.587,-14.535 -3.725,-3.81 -8.597,-5.718 -14.606,-5.718 -6.05,0 -10.952,1.908 -14.707,5.718 -3.764,3.815 -5.637,8.657 -5.637,14.535 v 8.587 c 0,5.853 1.873,10.695 5.617,14.515 3.745,3.825 8.637,5.738 14.667,5.738 5.979,0 10.851,-1.913 14.616,-5.738 3.754,-3.82 5.637,-8.662 5.637,-14.515 z"
             style="fill:#7289da;fill-opacity:1;fill-rule:nonzero;stroke:none"
             id="path38"
             inkscape:connector-curvature="0" /></g></g></g></g></svg>